<svg width="593" height="1259" viewBox="0 0 593 1259" fill="none" xmlns="http://www.w3.org/2000/svg">
<path d="M315.488 85.7319C380.841 27.3149 466.477 -12.2906 617.465 3.48371C768.454 19.258 839.442 118.406 899.161 226.568C955.77 329.096 947.454 498.098 918.158 578.093C888.862 658.088 820.128 809.064 828.015 933C839.632 1115.52 715.496 1228.08 588.011 1248.47C475.333 1266.5 372.954 1268.75 287.16 1194.39C191.277 1111.28 212.951 984.829 181.401 922.861C143.541 848.5 90.2789 839.101 40.5541 756.111C-9.17072 673.121 -11.1694 557.072 23.6512 467.679C65.344 360.644 138.583 327.97 181.401 281.776C232.573 226.568 250.134 144.149 315.488 85.7319Z" fill="#D5E9FF"/>
</svg>
