<svg width="590" height="1226" viewBox="0 0 590 1226" fill="none" xmlns="http://www.w3.org/2000/svg">
<path d="M342.329 124.969C289.485 55.6103 224.531 21.4815 152.972 7.16939C-124.458 -35.7669 -196.017 124.969 -215.833 202.034C-235.65 279.099 -193.815 531.212 -237.852 631.396C-281.888 731.581 -372.504 965.34 -243.356 1088.28C-116.844 1208.72 10.0523 1233.96 131.153 1224.05C252.253 1214.14 313.705 1100.39 342.329 1062.96C370.953 1025.53 423.583 943.803 522.323 848.401C599.024 774.294 610.529 620.968 556.838 534.084C515.076 466.501 441.94 431.867 412.387 360.315C391.469 309.672 395.173 194.327 342.329 124.969Z" fill="white"/>
</svg>
