<svg width="590" height="1226" viewBox="0 0 590 1226" fill="none" xmlns="http://www.w3.org/2000/svg">
<path d="M342.329 1101.03C289.485 1170.39 224.531 1204.52 152.972 1218.83C-124.458 1261.77 -196.017 1101.03 -215.833 1023.97C-235.65 946.901 -193.815 694.788 -237.852 594.604C-281.888 494.419 -372.504 260.661 -243.356 137.718C-116.844 17.2839 10.0523 -7.95703 131.153 1.95129C252.253 11.8597 313.705 125.608 342.329 163.039C370.953 200.471 423.583 282.197 522.323 377.599C599.024 451.706 610.529 605.032 556.838 691.916C515.076 759.499 441.94 794.133 412.387 865.685C391.469 916.328 395.173 1031.67 342.329 1101.03Z" fill="white"/>
</svg>
